# Blender v2.74 (sub 0) OBJ File: ''
# www.blender.org
mtllib bll.mtl
o bll_blight_Plane.037
v 0.705995 0.731529 -1.957594
v 0.707199 0.751632 -1.944361
v 0.759612 0.745301 -1.917081
v 0.757987 0.725693 -1.931283
v 0.757168 0.713047 -1.940313
v 0.705215 0.718491 -1.966178
v 0.650127 0.723370 -1.991975
v 0.650940 0.736902 -1.983818
v 0.652195 0.757781 -1.971233
v 0.601219 0.709238 -2.021260
v 0.600847 0.704023 -2.024236
v 0.546844 0.705809 -2.042861
v 0.547330 0.710872 -2.040580
v 0.547815 0.715749 -2.038241
v 0.601575 0.714199 -2.018429
v 0.649436 0.711864 -1.998906
v 0.649151 0.707068 -2.001780
v 0.648852 0.702023 -2.004798
v 0.415919 0.803072 -2.041634
v 0.434868 0.802111 -2.035201
v 0.426621 0.770875 -2.054748
v 0.406872 0.771786 -2.061567
v 0.406253 0.771815 -2.061781
v 0.415325 0.803102 -2.041836
v 0.423121 0.829493 -2.024960
v 0.426097 0.838270 -2.019208
v 0.444152 0.837310 -2.013177
v 0.794673 0.696009 -1.929955
v 0.794566 0.693580 -1.931427
v 0.756099 0.696008 -1.952366
v 0.756295 0.699295 -1.950135
v 0.756503 0.702698 -1.947775
v 0.794813 0.698732 -1.928109
v 0.826307 0.695209 -1.911404
v 0.826249 0.693116 -1.912655
v 0.818328 0.692412 -1.917647
v 0.704315 0.703368 -1.976074
v 0.704065 0.699087 -1.978832
v 0.704562 0.707553 -1.973365
v 0.708882 0.779771 -1.925845
v 0.710806 0.811929 -1.904688
v 0.762567 0.802763 -1.876666
v 0.762466 0.772906 -1.896718
v 0.653950 0.787032 -1.953600
v 0.655956 0.820470 -1.933444
v 0.400088 0.748326 -2.076515
v 0.420446 0.747567 -2.069343
v 0.416300 0.731957 -2.079259
v 0.395528 0.732561 -2.086718
v 0.394877 0.732580 -2.086951
v 0.399449 0.748350 -2.076740
v 0.393156 0.724360 -2.092414
v 0.414142 0.723814 -2.084770
v 0.413067 0.719334 -2.086982
v 0.391983 0.719887 -2.094586
v 0.391322 0.719905 -2.094824
v 0.392498 0.724377 -2.092654
v 0.704799 0.711547 -1.970750
v 0.756734 0.706332 -1.945156
v 0.649694 0.716161 -1.996321
v 0.607200 0.791885 -1.974180
v 0.605020 0.761753 -1.991346
v 0.553292 0.764806 -2.010556
v 0.556702 0.795560 -1.993208
v 0.560572 0.830569 -1.973463
v 0.609687 0.826289 -1.954580
v 0.603457 0.740166 -2.003641
v 0.602439 0.726130 -2.011633
v 0.549163 0.727994 -2.031357
v 0.550804 0.742564 -2.023110
v 0.601896 0.718652 -2.015892
v 0.548297 0.720256 -2.035783
v 0.795019 0.702042 -1.925514
v 0.795454 0.708592 -1.920453
v 0.826905 0.704632 -1.903595
v 0.826479 0.698212 -1.908849
v 0.391020 0.715307 -2.094215
v 0.412170 0.714712 -2.087000
v 0.411363 0.710020 -2.085923
v 0.390162 0.710673 -2.092574
v 0.389878 0.711846 -2.093145
v 0.390357 0.715326 -2.094441
v 0.796280 0.721038 -1.911205
v 0.799014 0.740785 -1.895739
v 0.828908 0.734818 -1.880950
v 0.827724 0.716973 -1.894243
v 0.805174 0.769243 -1.872020
v 0.830429 0.757745 -1.863870
v 0.799575 0.795071 -1.857736
v 0.822161 0.789241 -1.847141
v 0.830662 0.785664 -1.844125
v 0.831332 0.777459 -1.849447
v 0.490527 0.799287 -2.016303
v 0.484626 0.768197 -2.034717
v 0.497186 0.834493 -1.995462
v 0.480242 0.745339 -2.048276
v 0.477315 0.730186 -2.057353
v 0.475784 0.722212 -2.062318
v 0.474995 0.717708 -2.064646
v 0.474294 0.712965 -2.065808
v 0.473637 0.708104 -2.066388
v 0.705995 0.731529 -1.944309
v 0.707199 0.751632 -1.931076
v 0.759610 0.745299 -1.903799
v 0.757987 0.725693 -1.917998
v 0.757168 0.713047 -1.927028
v 0.705215 0.718491 -1.952893
v 0.650127 0.723370 -1.978690
v 0.650940 0.736902 -1.970533
v 0.652195 0.757781 -1.957947
v 0.601219 0.709238 -2.007975
v 0.600847 0.704023 -2.010952
v 0.546998 0.705805 -2.029528
v 0.547509 0.710867 -2.027234
v 0.548006 0.715744 -2.024887
v 0.601575 0.714199 -2.005144
v 0.649436 0.711864 -1.985621
v 0.649151 0.707068 -1.988495
v 0.648852 0.702023 -1.991513
v 0.491188 0.799254 -2.002794
v 0.556867 0.795551 -1.979867
v 0.553452 0.764799 -1.997216
v 0.485266 0.768168 -2.021212
v 0.427579 0.770830 -2.041132
v 0.435860 0.802060 -2.021580
v 0.445182 0.837256 -1.999548
v 0.497872 0.834457 -1.981948
v 0.560744 0.830560 -1.960120
v 0.794673 0.696009 -1.916670
v 0.794566 0.693580 -1.918142
v 0.756099 0.696008 -1.939081
v 0.756295 0.699295 -1.936851
v 0.756503 0.702698 -1.934490
v 0.794813 0.698732 -1.914824
v 0.826307 0.695209 -1.898119
v 0.826249 0.693116 -1.899369
v 0.818328 0.692412 -1.904362
v 0.704315 0.703368 -1.962789
v 0.704065 0.699087 -1.965547
v 0.704562 0.707553 -1.960079
v 0.708882 0.779771 -1.912560
v 0.710806 0.811929 -1.891403
v 0.762550 0.802767 -1.863390
v 0.762458 0.772896 -1.883446
v 0.653950 0.787032 -1.940315
v 0.655956 0.820470 -1.920159
v 0.480867 0.745315 -2.034771
v 0.550960 0.742558 -2.009770
v 0.549324 0.727989 -2.018014
v 0.477956 0.730167 -2.043837
v 0.417262 0.731929 -2.065629
v 0.421382 0.747532 -2.055728
v 0.476496 0.722193 -2.048773
v 0.548475 0.720252 -2.022434
v 0.475757 0.717688 -2.051085
v 0.414210 0.719304 -2.073282
v 0.415211 0.723787 -2.071095
v 0.704799 0.711547 -1.957465
v 0.756734 0.706332 -1.931871
v 0.649694 0.716161 -1.983036
v 0.607200 0.791885 -1.960896
v 0.605020 0.761753 -1.978061
v 0.609687 0.826289 -1.941295
v 0.603457 0.740166 -1.990356
v 0.602439 0.726130 -1.998348
v 0.601896 0.718652 -2.002607
v 0.795019 0.702042 -1.912229
v 0.795454 0.708592 -1.907168
v 0.826905 0.704632 -1.890310
v 0.826479 0.698212 -1.895564
v 0.475007 0.712945 -2.052277
v 0.474252 0.708085 -2.052909
v 0.412287 0.709992 -2.072348
v 0.413241 0.714683 -2.073346
v 0.796280 0.721038 -1.897920
v 0.799006 0.740775 -1.882466
v 0.828906 0.734786 -1.867688
v 0.827724 0.716973 -1.880958
v 0.805143 0.769200 -1.858786
v 0.830421 0.757619 -1.850679
v 0.799504 0.795088 -1.844486
v 0.822053 0.789235 -1.833931
v 0.830583 0.785555 -1.830967
v 0.831302 0.777275 -1.836311
v 0.400712 0.748303 -2.063011
v 0.396169 0.732542 -2.073202
v 0.394877 0.732580 -2.073667
v 0.399449 0.748350 -2.063455
v 0.406253 0.771815 -2.048496
v 0.407512 0.771757 -2.048062
v 0.393869 0.724341 -2.078869
v 0.392746 0.719868 -2.081025
v 0.391322 0.719905 -2.081539
v 0.392498 0.724377 -2.079369
v 0.391734 0.715287 -2.080684
v 0.390778 0.710654 -2.079095
v 0.390032 0.711841 -2.079812
v 0.390357 0.715326 -2.081157
v 0.416580 0.803038 -2.028125
v 0.415325 0.803102 -2.028551
v 0.423293 0.829484 -2.011618
v 0.426784 0.838233 -2.005694
vt 0.421537 0.280433
vt 0.420429 0.314137
vt 0.372140 0.308161
vt 0.373566 0.275855
vt 0.374273 0.259065
vt 0.422256 0.263144
vt 0.472985 0.266918
vt 0.472236 0.284937
vt 0.471081 0.320579
vt 0.518023 0.232646
vt 0.518366 0.224361
vt 0.558850 0.225703
vt 0.558425 0.233790
vt 0.558015 0.242827
vt 0.517695 0.242019
vt 0.473621 0.239704
vt 0.473884 0.230303
vt 0.474159 0.222288
vt 0.661718 0.411902
vt 0.625079 0.408454
vt 0.629812 0.335087
vt 0.667539 0.337773
vt 0.705265 0.340458
vt 0.698358 0.415350
vt 0.683453 0.481504
vt 0.654921 0.500966
vt 0.619575 0.497083
vt 0.339876 0.223118
vt 0.339975 0.219259
vt 0.375398 0.220023
vt 0.375217 0.225246
vt 0.375003 0.232613
vt 0.339654 0.229653
vt 0.310559 0.227039
vt 0.310798 0.221172
vt 0.318092 0.219392
vt 0.423084 0.227739
vt 0.423315 0.220938
vt 0.422857 0.236266
vt 0.418879 0.378285
vt 0.417108 0.457652
vt 0.369441 0.441032
vt 0.369534 0.369508
vt 0.469464 0.388495
vt 0.467617 0.472547
vt 0.671403 0.293516
vt 0.633003 0.292247
vt 0.634964 0.268277
vt 0.673743 0.268008
vt 0.712521 0.267741
vt 0.709803 0.294784
vt 0.674985 0.250131
vt 0.636007 0.251517
vt 0.636596 0.239723
vt 0.675681 0.237698
vt 0.714766 0.235674
vt 0.713964 0.248744
vt 0.422639 0.248245
vt 0.374720 0.244269
vt 0.473384 0.251875
vt 0.512515 0.395762
vt 0.514522 0.325523
vt 0.553832 0.329340
vt 0.551138 0.400971
vt 0.548055 0.488516
vt 0.510225 0.482233
vt 0.515962 0.287747
vt 0.516900 0.268431
vt 0.556976 0.268649
vt 0.555743 0.289537
vt 0.517400 0.253567
vt 0.557632 0.253763
vt 0.339184 0.241539
vt 0.338597 0.256641
vt 0.309074 0.255044
vt 0.309840 0.239433
vt 0.676380 0.228527
vt 0.637197 0.230644
vt 0.637804 0.222923
vt 0.677079 0.220987
vt 0.706337 0.221375
vt 0.715562 0.226411
vt 0.338023 0.272823
vt 0.335785 0.304614
vt 0.308163 0.296575
vt 0.308693 0.270563
vt 0.330206 0.366541
vt 0.306949 0.343659
vt 0.335362 0.426168
vt 0.314563 0.414316
vt 0.306734 0.406731
vt 0.306117 0.388237
vt 0.588439 0.405006
vt 0.592086 0.332402
vt 0.584229 0.493199
vt 0.594603 0.290979
vt 0.596186 0.268544
vt 0.597028 0.252904
vt 0.597511 0.241747
vt 0.598014 0.232761
vt 0.598528 0.224859
vt 0.151841 0.739890
vt 0.150581 0.778226
vt 0.095657 0.771429
vt 0.097279 0.734683
vt 0.098083 0.715587
vt 0.152659 0.720226
vt 0.210358 0.724519
vt 0.209506 0.745013
vt 0.208193 0.785552
vt 0.261584 0.685537
vt 0.261974 0.676114
vt 0.318847 0.677107
vt 0.318311 0.686257
vt 0.317803 0.696562
vt 0.261212 0.696198
vt 0.211081 0.693565
vt 0.211380 0.682873
vt 0.211694 0.673756
vt 0.376148 0.880882
vt 0.307868 0.876816
vt 0.312330 0.795975
vt 0.385894 0.800833
vt 0.448477 0.804523
vt 0.433607 0.883333
vt 0.414971 0.976998
vt 0.364074 0.977180
vt 0.302539 0.975387
vt 0.058960 0.674701
vt 0.059072 0.670311
vt 0.099363 0.671181
vt 0.099157 0.677121
vt 0.098913 0.685500
vt 0.058707 0.682133
vt 0.025615 0.679160
vt 0.025887 0.672487
vt 0.034183 0.670463
vt 0.153601 0.679956
vt 0.153864 0.672221
vt 0.153343 0.689655
vt 0.148818 0.851187
vt 0.146803 0.941459
vt 0.092606 0.922565
vt 0.092702 0.841175
vt 0.206354 0.862800
vt 0.204252 0.958401
vt 0.390986 0.753281
vt 0.315062 0.750594
vt 0.316567 0.726415
vt 0.393199 0.726074
vt 0.458661 0.725622
vt 0.455812 0.755422
vt 0.394308 0.707057
vt 0.317351 0.709176
vt 0.394925 0.693667
vt 0.460846 0.690253
vt 0.460074 0.704719
vt 0.153094 0.703280
vt 0.098591 0.698757
vt 0.210812 0.707409
vt 0.255320 0.871066
vt 0.257603 0.791175
vt 0.252715 0.969418
vt 0.259241 0.748210
vt 0.260307 0.726239
vt 0.260875 0.709333
vt 0.058173 0.695652
vt 0.057505 0.712829
vt 0.023926 0.711013
vt 0.024797 0.693257
vt 0.395659 0.683341
vt 0.396452 0.674547
vt 0.462774 0.671277
vt 0.461771 0.679770
vt 0.056852 0.731235
vt 0.054307 0.767393
vt 0.022892 0.758169
vt 0.023493 0.728665
vt 0.047994 0.837716
vt 0.021518 0.811481
vt 0.053900 0.905687
vt 0.030282 0.892145
vt 0.021348 0.883257
vt 0.020595 0.862032
vt 0.478338 0.756166
vt 0.481412 0.725465
vt 0.482806 0.725454
vt 0.479715 0.756213
vt 0.471654 0.805920
vt 0.470264 0.805820
vt 0.482977 0.703903
vt 0.483836 0.689062
vt 0.485360 0.688982
vt 0.484447 0.703848
vt 0.484791 0.678526
vt 0.485795 0.670142
vt 0.486598 0.672185
vt 0.486265 0.678446
vt 0.453696 0.884239
vt 0.455099 0.884372
vt 0.439144 0.953952
vt 0.432881 0.977041
vn 0.428100 0.478000 -0.766900
vn 0.441000 0.474000 -0.762100
vn 0.453400 0.494300 -0.741600
vn 0.443300 0.498000 -0.745300
vn 0.435400 0.503800 -0.746000
vn 0.419400 0.481200 -0.769800
vn 0.386300 0.461000 -0.798900
vn 0.394800 0.458700 -0.796000
vn 0.407700 0.455200 -0.791600
vn 0.335500 0.435400 -0.835300
vn 0.330500 0.430600 -0.839800
vn 0.315400 0.311100 -0.896500
vn 0.320300 0.339300 -0.884500
vn 0.323600 0.392200 -0.861000
vn 0.338800 0.442400 -0.830300
vn 0.378500 0.461200 -0.802500
vn 0.376100 0.460700 -0.803900
vn 0.371700 0.459900 -0.806400
vn 0.308100 0.445800 -0.840400
vn 0.308000 0.444300 -0.841300
vn 0.310600 0.443300 -0.840800
vn 0.310500 0.445000 -0.840000
vn 0.310900 0.445100 -0.839700
vn 0.308700 0.445900 -0.840100
vn 0.307200 0.446500 -0.840400
vn 0.306400 0.446200 -0.840800
vn 0.306600 0.444400 -0.841700
vn 0.451900 0.459500 -0.764600
vn 0.454400 0.445700 -0.771300
vn 0.429900 0.477300 -0.766400
vn 0.430900 0.482100 -0.762800
vn 0.428800 0.498400 -0.753400
vn 0.442200 0.507200 -0.739700
vn 0.447300 0.516300 -0.730300
vn 0.457000 0.463200 -0.759300
vn 0.469200 0.410700 -0.781800
vn 0.410100 0.475100 -0.778500
vn 0.407500 0.472800 -0.781200
vn 0.411700 0.479100 -0.775200
vn 0.457500 0.468500 -0.755800
vn 0.467300 0.466500 -0.751000
vn 0.472000 0.487200 -0.734700
vn 0.465800 0.489800 -0.737000
vn 0.424600 0.450400 -0.785400
vn 0.436500 0.448300 -0.780000
vn 0.311900 0.447400 -0.838100
vn 0.312200 0.445300 -0.839100
vn 0.312100 0.459500 -0.831500
vn 0.311200 0.464700 -0.829000
vn 0.310600 0.469500 -0.826500
vn 0.311800 0.448700 -0.837500
vn 0.319700 0.413500 -0.852500
vn 0.319100 0.418700 -0.850200
vn 0.334600 0.176200 -0.925700
vn 0.336100 0.114200 -0.934800
vn 0.335600 0.059600 -0.940100
vn 0.322000 0.395200 -0.860300
vn 0.414200 0.482400 -0.771800
vn 0.429700 0.508600 -0.746100
vn 0.381400 0.461800 -0.800800
vn 0.372400 0.441400 -0.816400
vn 0.359600 0.444600 -0.820400
vn 0.326500 0.439700 -0.836700
vn 0.331300 0.438600 -0.835400
vn 0.336300 0.437800 -0.833800
vn 0.382800 0.439700 -0.812500
vn 0.350100 0.446900 -0.823200
vn 0.344000 0.449000 -0.824600
vn 0.320900 0.445000 -0.836000
vn 0.323000 0.441100 -0.837300
vn 0.340800 0.448600 -0.826200
vn 0.321200 0.437200 -0.840000
vn 0.439500 0.533700 -0.722500
vn 0.446600 0.520600 -0.727700
vn 0.452400 0.524600 -0.721200
vn 0.444200 0.543900 -0.711900
vn 0.307200 -0.234600 -0.922200
vn 0.316000 -0.115800 -0.941600
vn 0.298500 -0.211300 -0.930700
vn 0.286200 -0.325900 -0.901000
vn 0.283300 -0.367300 -0.885900
vn 0.304800 -0.262700 -0.915500
vn 0.453200 0.509000 -0.731700
vn 0.459100 0.505500 -0.730500
vn 0.461600 0.508200 -0.727100
vn 0.458300 0.511200 -0.727000
vn 0.465800 0.503200 -0.727900
vn 0.464100 0.508000 -0.725600
vn 0.470000 0.499500 -0.727700
vn 0.469800 0.503200 -0.725300
vn 0.467700 0.505700 -0.724900
vn 0.465400 0.508400 -0.724400
vn 0.313000 0.440600 -0.841400
vn 0.314000 0.440200 -0.841200
vn 0.313600 0.440300 -0.841300
vn 0.314700 0.441600 -0.840200
vn 0.314800 0.450400 -0.835500
vn 0.318800 0.427100 -0.846100
vn 0.329200 0.290100 -0.898600
vn 0.323700 0.122400 -0.938200
vn 0.314500 0.053400 -0.947800
vn 0.435400 0.503900 -0.746000
vn 0.335500 0.435600 -0.835300
vn 0.330500 0.430800 -0.839700
vn 0.315400 0.312100 -0.896100
vn 0.320200 0.340400 -0.884100
vn 0.323600 0.392700 -0.860800
vn 0.313000 0.440500 -0.841400
vn 0.331400 0.438500 -0.835400
vn 0.314100 0.440200 -0.841200
vn 0.308000 0.444200 -0.841300
vn 0.313600 0.440200 -0.841300
vn 0.336500 0.437700 -0.833700
vn 0.451900 0.459500 -0.764500
vn 0.429900 0.477200 -0.766400
vn 0.428800 0.498500 -0.753400
vn 0.447300 0.516200 -0.730300
vn 0.457000 0.463100 -0.759300
vn 0.469200 0.410800 -0.781700
vn 0.465700 0.489800 -0.737000
vn 0.314800 0.441500 -0.840200
vn 0.323100 0.441100 -0.837300
vn 0.321000 0.445000 -0.836000
vn 0.314800 0.450300 -0.835500
vn 0.312100 0.459400 -0.831600
vn 0.312300 0.445200 -0.839200
vn 0.318900 0.427000 -0.846100
vn 0.329100 0.291800 -0.898100
vn 0.334500 0.178500 -0.925300
vn 0.414200 0.482300 -0.771800
vn 0.382900 0.439600 -0.812500
vn 0.350200 0.446900 -0.823200
vn 0.344100 0.449000 -0.824600
vn 0.323700 0.126000 -0.937700
vn 0.314400 0.054800 -0.947700
vn 0.298700 -0.208800 -0.931200
vn 0.316400 -0.111000 -0.942100
vn 0.465800 0.503100 -0.727900
vn 0.465400 0.508500 -0.724400
vn 0.311900 0.447400 -0.838200
vn 0.311600 0.464400 -0.829000
vn 0.311400 0.469000 -0.826400
vn 0.312000 0.448600 -0.837500
vn 0.310200 0.445400 -0.839800
vn 0.310300 0.445100 -0.840000
vn 0.320000 0.413400 -0.852400
vn 0.336500 0.115700 -0.934500
vn 0.336600 0.060200 -0.939700
vn 0.322500 0.395100 -0.860100
vn 0.308400 -0.231700 -0.922600
vn 0.287100 -0.328100 -0.900000
vn 0.285700 -0.365300 -0.886000
vn 0.307000 -0.259500 -0.915600
vn 0.308100 0.445900 -0.840400
vn 0.308300 0.446100 -0.840100
vn 0.307200 0.446500 -0.840300
usemtl blight_g
s 1
f 1/1/1 2/2/2 3/3/3 4/4/4
f 1/1/1 4/4/4 5/5/5 6/6/6
f 1/1/1 6/6/6 7/7/7 8/8/8
f 1/1/1 8/8/8 9/9/9 2/2/2
f 10/10/10 11/11/11 12/12/12 13/13/13
f 10/10/10 13/13/13 14/14/14 15/15/15
f 10/10/10 15/15/15 16/16/16 17/17/17
f 10/10/10 17/17/17 18/18/18 11/11/11
f 19/19/19 20/20/20 21/21/21 22/22/22
f 19/19/19 22/22/22 23/23/23 24/24/24
f 19/19/19 24/24/24 25/25/25 26/26/26
f 19/19/19 26/26/26 27/27/27 20/20/20
f 28/28/28 29/29/29 30/30/30 31/31/31
f 28/28/28 31/31/31 32/32/32 33/33/33
f 28/28/28 33/33/33 34/34/34 35/35/35
f 28/28/28 35/35/35 36/36/36 29/29/29
f 37/37/37 31/31/31 30/30/30 38/38/38
f 37/37/37 38/38/38 18/18/18 17/17/17
f 37/37/37 17/17/17 16/16/16 39/39/39
f 37/37/37 39/39/39 32/32/32 31/31/31
f 40/40/40 41/41/41 42/42/42 43/43/43
f 40/40/40 43/43/43 3/3/3 2/2/2
f 40/40/40 2/2/2 9/9/9 44/44/44
f 40/40/40 44/44/44 45/45/45 41/41/41
f 46/46/46 47/47/47 48/48/48 49/49/49
f 46/46/46 49/49/49 50/50/50 51/51/51
f 46/46/46 51/51/51 23/23/23 22/22/22
f 46/46/46 22/22/22 21/21/21 47/47/47
f 52/52/52 53/53/53 54/54/54 55/55/55
f 52/52/52 55/55/55 56/56/56 57/57/57
f 52/52/52 57/57/57 50/50/50 49/49/49
f 52/52/52 49/49/49 48/48/48 53/53/53
f 58/58/58 6/6/6 5/5/5 59/59/59
f 58/58/58 59/59/59 32/32/32 39/39/39
f 58/58/58 39/39/39 16/16/16 60/60/60
f 58/58/58 60/60/60 7/7/7 6/6/6
f 61/61/61 44/44/44 9/9/9 62/62/62
f 61/61/61 62/62/62 63/63/63 64/64/64
f 61/61/61 64/64/64 65/65/65 66/66/66
f 61/61/61 66/66/66 45/45/45 44/44/44
f 67/67/67 8/8/8 7/7/7 68/68/68
f 67/67/67 68/68/68 69/69/69 70/70/70
f 67/67/67 70/70/70 63/63/63 62/62/62
f 67/67/67 62/62/62 9/9/9 8/8/8
f 71/71/71 15/15/15 14/14/14 72/72/72
f 71/71/71 72/72/72 69/69/69 68/68/68
f 71/71/71 68/68/68 7/7/7 60/60/60
f 71/71/71 60/60/60 16/16/16 15/15/15
f 73/73/73 33/33/33 32/32/32 59/59/59
f 73/73/73 59/59/59 5/5/5 74/74/74
f 73/73/73 74/74/74 75/75/75 76/76/76
f 73/73/73 76/76/76 34/34/34 33/33/33
f 77/77/77 55/55/55 54/54/54 78/78/78
f 77/77/77 78/78/78 79/79/79 80/80/80
f 77/77/77 80/80/80 81/81/81 82/82/82
f 77/77/77 82/82/82 56/56/56 55/55/55
f 83/83/83 74/74/74 5/5/5 4/4/4
f 83/83/83 4/4/4 3/3/3 84/84/84
f 83/83/83 84/84/84 85/85/85 86/86/86
f 83/83/83 86/86/86 75/75/75 74/74/74
f 87/87/87 88/88/88 85/85/85 84/84/84
f 87/87/87 84/84/84 3/3/3 43/43/43
f 87/87/87 43/43/43 42/42/42 89/89/89
f 87/87/87 89/89/89 90/90/90 91/91/91
f 87/87/87 91/91/91 92/92/92 88/88/88
f 93/93/93 64/64/64 63/63/63 94/94/94
f 93/93/93 94/94/94 21/21/21 20/20/20
f 93/93/93 20/20/20 27/27/27 95/95/95
f 93/93/93 95/95/95 65/65/65 64/64/64
f 96/96/96 70/70/70 69/69/69 97/97/97
f 96/96/96 97/97/97 48/48/48 47/47/47
f 96/96/96 47/47/47 21/21/21 94/94/94
f 96/96/96 94/94/94 63/63/63 70/70/70
f 98/98/98 72/72/72 14/14/14 99/99/99
f 98/98/98 99/99/99 54/54/54 53/53/53
f 98/98/98 53/53/53 48/48/48 97/97/97
f 98/98/98 97/97/97 69/69/69 72/72/72
f 100/100/100 99/99/99 14/14/14 13/13/13
f 100/100/100 13/13/13 12/12/12 101/101/101
f 100/100/100 101/101/101 79/79/79 78/78/78
f 100/100/100 78/78/78 54/54/54 99/99/99
usemtl blight
f 102/102/1 103/103/2 104/104/3 105/105/4
f 102/102/1 105/105/4 106/106/102 107/107/6
f 102/102/1 107/107/6 108/108/7 109/109/8
f 102/102/1 109/109/8 110/110/9 103/103/2
f 111/111/103 112/112/104 113/113/105 114/114/106
f 111/111/103 114/114/106 115/115/107 116/116/15
f 111/111/103 116/116/15 117/117/16 118/118/17
f 111/111/103 118/118/17 119/119/18 112/112/104
f 120/120/108 121/121/109 122/122/63 123/123/110
f 120/120/108 123/123/110 124/124/21 125/125/111
f 120/120/108 125/125/111 126/126/27 127/127/112
f 120/120/108 127/127/112 128/128/113 121/121/109
f 129/129/114 130/130/29 131/131/115 132/132/31
f 129/129/114 132/132/31 133/133/116 134/134/33
f 129/129/114 134/134/33 135/135/117 136/136/118
f 129/129/114 136/136/118 137/137/119 130/130/29
f 138/138/37 132/132/31 131/131/115 139/139/38
f 138/138/37 139/139/38 119/119/18 118/118/17
f 138/138/37 118/118/17 117/117/16 140/140/39
f 138/138/37 140/140/39 133/133/116 132/132/31
f 141/141/40 142/142/41 143/143/42 144/144/120
f 141/141/40 144/144/120 104/104/3 103/103/2
f 141/141/40 103/103/2 110/110/9 145/145/44
f 141/141/40 145/145/44 146/146/45 142/142/41
f 147/147/121 148/148/122 149/149/123 150/150/124
f 147/147/121 150/150/124 151/151/125 152/152/126
f 147/147/121 152/152/126 124/124/21 123/123/110
f 147/147/121 123/123/110 122/122/63 148/148/122
f 153/153/127 154/154/72 115/115/107 155/155/128
f 153/153/127 155/155/128 156/156/129 157/157/53
f 153/153/127 157/157/53 151/151/125 150/150/124
f 153/153/127 150/150/124 149/149/123 154/154/72
f 158/158/130 107/107/6 106/106/102 159/159/59
f 158/158/130 159/159/59 133/133/116 140/140/39
f 158/158/130 140/140/39 117/117/16 160/160/60
f 158/158/130 160/160/60 108/108/7 107/107/6
f 161/161/61 145/145/44 110/110/9 162/162/62
f 161/161/61 162/162/62 122/122/63 121/121/109
f 161/161/61 121/121/109 128/128/113 163/163/131
f 161/161/61 163/163/131 146/146/45 145/145/44
f 164/164/132 109/109/8 108/108/7 165/165/133
f 164/164/132 165/165/133 149/149/123 148/148/122
f 164/164/132 148/148/122 122/122/63 162/162/62
f 164/164/132 162/162/62 110/110/9 109/109/8
f 166/166/71 116/116/15 115/115/107 154/154/72
f 166/166/71 154/154/72 149/149/123 165/165/133
f 166/166/71 165/165/133 108/108/7 160/160/60
f 166/166/71 160/160/60 117/117/16 116/116/15
f 167/167/73 134/134/33 133/133/116 159/159/59
f 167/167/73 159/159/59 106/106/102 168/168/74
f 167/167/73 168/168/74 169/169/75 170/170/76
f 167/167/73 170/170/76 135/135/117 134/134/33
f 171/171/134 155/155/128 115/115/107 114/114/106
f 171/171/134 114/114/106 113/113/105 172/172/135
f 171/171/134 172/172/135 173/173/136 174/174/137
f 171/171/134 174/174/137 156/156/129 155/155/128
f 175/175/83 168/168/74 106/106/102 105/105/4
f 175/175/83 105/105/4 104/104/3 176/176/84
f 175/175/83 176/176/84 177/177/85 178/178/86
f 175/175/83 178/178/86 169/169/75 168/168/74
f 179/179/138 180/180/88 177/177/85 176/176/84
f 179/179/138 176/176/84 104/104/3 144/144/120
f 179/179/138 144/144/120 143/143/42 181/181/89
f 179/179/138 181/181/89 182/182/90 183/183/91
f 179/179/138 183/183/91 184/184/139 180/180/88
f 185/185/140 152/152/126 151/151/125 186/186/141
f 185/185/140 186/186/141 187/187/142 188/188/143
f 185/185/140 188/188/143 189/189/144 190/190/145
f 185/185/140 190/190/145 124/124/21 152/152/126
f 191/191/146 157/157/53 156/156/129 192/192/147
f 191/191/146 192/192/147 193/193/148 194/194/149
f 191/191/146 194/194/149 187/187/142 186/186/141
f 191/191/146 186/186/141 151/151/125 157/157/53
f 195/195/150 192/192/147 156/156/129 174/174/137
f 195/195/150 174/174/137 173/173/136 196/196/151
f 195/195/150 196/196/151 197/197/152 198/198/153
f 195/195/150 198/198/153 193/193/148 192/192/147
f 199/199/154 125/125/111 124/124/21 190/190/145
f 199/199/154 190/190/145 189/189/144 200/200/155
f 199/199/154 200/200/155 201/201/156 202/202/26
f 199/199/154 202/202/26 126/126/27 125/125/111
